<svg id="Layer_1" data-name="Layer 1" xmlns="http://www.w3.org/2000/svg" xmlns:xlink="http://www.w3.org/1999/xlink" viewBox="0 0 2000 1500"><defs><style>.cls-1{fill:url(#linear-gradient);}.cls-2{fill:url(#linear-gradient-2);}.cls-3{fill:url(#linear-gradient-3);}.cls-4{fill:url(#linear-gradient-6);}.cls-5{fill:url(#linear-gradient-7);}.cls-6{fill:url(#linear-gradient-8);}.cls-7{fill:url(#linear-gradient-9);}.cls-8{fill:url(#linear-gradient-10);}.cls-9{fill:url(#linear-gradient-11);}</style><linearGradient id="linear-gradient" x1="978.65" y1="852.85" x2="1028.33" y2="224.19" gradientUnits="userSpaceOnUse"><stop offset="0" stop-color="#473368"/><stop offset="1" stop-color="#27306b"/></linearGradient><linearGradient id="linear-gradient-2" x1="982.1" y1="952.31" x2="1017.29" y2="506.98" xlink:href="#linear-gradient"/><linearGradient id="linear-gradient-3" x1="863.97" y1="942.97" x2="899.16" y2="497.65" xlink:href="#linear-gradient"/><linearGradient id="linear-gradient-6" x1="1070.08" y1="959.26" x2="1105.28" y2="513.94" xlink:href="#linear-gradient"/><linearGradient id="linear-gradient-7" x1="990.62" y1="952.98" x2="1025.81" y2="507.66" xlink:href="#linear-gradient"/><linearGradient id="linear-gradient-8" x1="971.07" y1="951.44" x2="1006.27" y2="506.11" xlink:href="#linear-gradient"/><linearGradient id="linear-gradient-9" x1="905.82" y1="946.28" x2="941.01" y2="500.95" xlink:href="#linear-gradient"/><linearGradient id="linear-gradient-10" x1="1101.81" y1="961.77" x2="1137" y2="516.44" xlink:href="#linear-gradient"/><linearGradient id="linear-gradient-11" x1="1118.11" y1="963.06" x2="1153.31" y2="517.73" xlink:href="#linear-gradient"/></defs><title>Artboard 1</title><path d="M560.31,1075.64v146H524.76v-87.55l-32.65,87.55h-28.7l-32.85-87.75v87.75H395v-146h42l41,101.06,40.55-101.06Z"/><path d="M704.42,1105.59l-72.78,171.13H593.38l26.61-59-47.2-112.08h39.72l26.82,72.57L666,1105.59Z"/><path d="M822.32,1075.64v28.49H783.64v117.49H748.08V1104.13H709.4v-28.49Z"/><path d="M839.89,1132a50.39,50.39,0,0,1,18.4-20.8,48.06,48.06,0,0,1,26-7.28,44.72,44.72,0,0,1,21.52,5,36.86,36.86,0,0,1,14.25,13.1v-16.42H955.6v116H920.05v-16.43a38.44,38.44,0,0,1-14.46,13.1,44.58,44.58,0,0,1-21.52,5,47.16,47.16,0,0,1-25.78-7.38,50.9,50.9,0,0,1-18.4-21q-6.76-13.62-6.76-31.51T839.89,1132Zm72.78,10.6a25,25,0,0,0-36-.1q-7.38,7.59-7.38,20.89t7.38,21.11a24.76,24.76,0,0,0,36,.1q7.37-7.68,7.38-21T912.67,1142.6Z"/><path d="M1001.56,1218.08a46.18,46.18,0,0,1-18.72-14.24,37.47,37.47,0,0,1-7.69-20.28h35.14a13.52,13.52,0,0,0,5.62,9.78,19.86,19.86,0,0,0,12.26,3.74q6.66,0,10.3-2.6a8,8,0,0,0,3.64-6.76q0-5-5.2-7.38t-16.85-5.3a156.26,156.26,0,0,1-20.79-6.14,35.83,35.83,0,0,1-14.35-10.18q-6-7-6-18.82a32,32,0,0,1,5.51-18.2q5.51-8.21,16.22-13t25.47-4.79q21.84,0,34.42,10.82t14.45,28.69h-32.85a14.19,14.19,0,0,0-5.31-9.56q-4.47-3.54-11.75-3.54c-4.15,0-7.35.8-9.56,2.39a7.64,7.64,0,0,0-3.33,6.55q0,5,5.3,7.49t16.54,5a181.47,181.47,0,0,1,21,6.55,36.21,36.21,0,0,1,14.24,10.4q6.13,7.17,6.34,19.23a30.54,30.54,0,0,1-5.71,18.2q-5.73,8-16.43,12.58t-24.85,4.57A66.6,66.6,0,0,1,1001.56,1218.08Z"/><path d="M1168.33,1221.62,1133,1173v48.66h-35.56V1067.74H1133v85l35.14-47.2H1212l-48.24,58.22,48.66,57.81Z"/><path d="M1257.22,1213.51a71.53,71.53,0,0,1-27.24-26.72q-10.1-17.16-10.09-38.58t10.09-38.46a71.7,71.7,0,0,1,27.24-26.62,79.2,79.2,0,0,1,75.48,0,70.27,70.27,0,0,1,27,26.62q9.87,17,9.87,38.46t-10,38.58a71.05,71.05,0,0,1-27,26.72,79.08,79.08,0,0,1-75.38,0Zm65.71-34.52q10.5-11.64,10.5-30.78,0-19.34-10.5-30.87t-28-11.55q-17.67,0-28.17,11.44t-10.51,31q0,19.35,10.51,30.88t28.17,11.54Q1312.44,1190.63,1322.93,1179Z"/><path d="M1555.93,1105.59l-31.4,116h-39.3l-18.3-75.28L1448,1221.62h-39.1l-31.6-116h35.55l16.43,83,19.55-83h37.63l19.76,82.55,16.22-82.55Z"/><path d="M1605,1067.74v153.88h-35.56V1067.74Z"/><path class="cls-1" d="M1257.07,834.22a359.64,359.64,0,1,0-514.12,0,210,210,0,0,1-10.78-61v-.66c0-6.93.23-13.55.66-19.85a314.55,314.55,0,0,1-49.6-170C683.23,408.05,825.34,266,1000,266s316.77,142.1,316.77,316.78a314.67,314.67,0,0,1-49.58,170q.64,9.46.65,19.86l0,.66A208.77,208.77,0,0,1,1257.07,834.22Z"/><path class="cls-2" d="M849.06,743.65a9,9,0,1,0,0,18.05,8.89,8.89,0,0,0,4.65-1.3,9,9,0,0,0,4.37-7.32c0-.13,0-.27,0-.41A9,9,0,0,0,849.06,743.65Zm300.44,0a9,9,0,0,0-9,9,9.2,9.2,0,0,0,.06,1.07,9,9,0,1,0,9-10.09Zm-.15,27.77a18.67,18.67,0,0,1-14.17-6.66q3.85,5.9,7.74,12.14a182.88,182.88,0,0,1,21,47.72A166.58,166.58,0,0,0,1149.35,771.42Zm51.84-115.32c-32.76,37.57-94.23,51.39-161.73-2.5,26.28,17.67,60.51,23.6,91,14.65,37.4-11,67.47-43.82,75.11-82,3.56-17.8,2.54-36.21.13-54.19-2-14.93-5-29.91-11.43-43.55,9.88-9,18.63-19.51,23.83-31.82,9.4-22.37,5.46-49.79-9.89-68.58a528.34,528.34,0,0,1-49.43,22.9,47.28,47.28,0,0,0,9.22-22.89,707.59,707.59,0,0,1-98.71,43.07c-21.54,7.39-46.48,11.18-69.25,11.22H1000c-22.76,0-47.71-3.83-69.25-11.22A707.59,707.59,0,0,1,832,388.09a47.44,47.44,0,0,0,9.2,22.89,529.21,529.21,0,0,1-49.41-22.9c-15.35,18.79-19.3,46.21-9.88,68.58,5.17,12.31,13.93,22.84,23.82,31.82-6.42,13.64-9.43,28.62-11.43,43.55-2.42,18-3.43,36.39.12,54.19,7.64,38.21,37.73,71.08,75.12,82,30.49,9,64.71,3,91-14.65-67.5,53.89-129,40.07-161.73,2.5,0,0-41.61,27.64-41.52,116.42,1.45,52.34,24.28,104.55,72,134-24.54-69.13-1.93-125.13,5.92-141.26A18.74,18.74,0,1,1,865,742.87a166.57,166.57,0,0,1,268.33.29,18.74,18.74,0,1,1,30,22.11c7.68,15.79,29.54,69.88,7.33,137.08,0,0,0,0,0,0-.18,1.52-.4,3-.62,4.55,48.12-29.38,71.17-81.83,72.63-134.4C1242.8,683.74,1201.19,656.1,1201.19,656.1Zm-98.72-174.16c29.88,0,54.1,30.21,54.1,67.49s-24.22,67.5-54.1,67.5-54.1-30.22-54.1-67.5S1072.6,481.94,1102.47,481.94ZM895.09,616.67c-29.88,0-54.1-30.21-54.1-67.49s24.22-67.5,54.1-67.5,54.1,30.22,54.1,67.5S925,616.67,895.09,616.67Zm135.16,6.15a156.68,156.68,0,0,1-6.82,17.06c-.06.1-.08.18-.14.26a147.11,147.11,0,0,1-15.58,25.78c-.27.33-.53.65-.82,1-1.42,1.48-5.16,2.31-6.89,2.52-1.75-.21-5.47-1-6.89-2.52a12.41,12.41,0,0,1-.82-1,145.91,145.91,0,0,1-15.58-25.78c-.05-.08-.09-.16-.14-.26a156.68,156.68,0,0,1-6.82-17.06c-1.74-5.17-.2-11.14,3.61-14.05,6.47-5,16.46-9.14,23.94-12.5a6.55,6.55,0,0,1,5.38,0c7.5,3.36,17.49,7.51,24,12.5C1030.43,611.68,1032,617.65,1030.25,622.82ZM1149.5,743.65a9,9,0,0,0-9,9,9.2,9.2,0,0,0,.06,1.07,9,9,0,1,0,9-10.09Zm0,0a9,9,0,0,0-9,9,9.2,9.2,0,0,0,.06,1.07,9,9,0,1,0,9-10.09Zm-300.44,0a9,9,0,1,0,0,18.05,8.89,8.89,0,0,0,4.65-1.3,9,9,0,0,0,4.37-7.32c0-.13,0-.27,0-.41A9,9,0,0,0,849.06,743.65Z"/><path class="cls-3" d="M895.09,509.25a26.36,26.36,0,0,0-10.49,2.19,16,16,0,1,1-19.76,24.67,49.1,49.1,0,0,0-1.76,13.06c0,22.06,14.34,39.93,32,39.93s32-17.87,32-39.93S912.76,509.25,895.09,509.25Z"/><path class="cls-3" d="M895.09,509.25a26.36,26.36,0,0,0-10.49,2.19,16,16,0,1,1-19.76,24.67,49.1,49.1,0,0,0-1.76,13.06c0,22.06,14.34,39.93,32,39.93s32-17.87,32-39.93S912.76,509.25,895.09,509.25Z"/><path class="cls-3" d="M927.1,549.17c0,22.06-14.34,39.93-32,39.93s-32-17.87-32-39.93a49.1,49.1,0,0,1,1.76-13.06,16,16,0,1,0,19.76-24.67,26.36,26.36,0,0,1,10.49-2.19C912.76,509.25,927.1,527.13,927.1,549.17Z"/><path class="cls-4" d="M1102.47,589.36c17.67,0,32-17.87,32-39.93s-14.34-39.93-32-39.93a26.33,26.33,0,0,0-9.47,1.78,16,16,0,1,1-20.39,23.77,48.36,48.36,0,0,0-2.15,14.38C1070.46,571.49,1084.79,589.36,1102.47,589.36Z"/><path class="cls-5" d="M1164,824.66s0,0,0,0a166.58,166.58,0,0,0-14.6-53.2,18.67,18.67,0,0,1-14.17-6.66q-1.25-1.92-2.5-3.79c-22-33.17-44.55-57.48-86.85-67.66l-47.85.1-43.8-.1c-48.82,11.75-71.27,42.31-97.1,83.59a182.18,182.18,0,0,0-21.19,48.28l-1.41,5.15c-.18.65-.36,1.32-.53,2a173,173,0,0,0,10.47,71.21l0,0A166.62,166.62,0,0,0,1158,891.68a.81.81,0,0,0,.07-.22A173,173,0,0,0,1164,824.66Zm-60.12,121.8A148.12,148.12,0,0,1,894.35,737c.66-.66,1.35-1.27,2-1.91a18.74,18.74,0,0,1-2,4.57c-2.19,3.27-5.87,4.59-8.18,7.66a31.29,31.29,0,0,0-4.57,10.21c-.85,3.4-.33,7.54-1.53,11-1.53,4.32-4.29,6.89-3.78,11.89,6,1.79,3.41-8.91,8.48-9.45,1.61,4,.55,11.4.09,15.77-.62,6-1.79,7.45,1.78,12.59,2.84,4.07,3.77,6.79,9.24,7.43,5,.6,7.11,2.87,9.19,7.71,3.88.82,6.23,1.46,6.73,5.75,1.68.93,4.83,4,6.61,4.42,2.57.68,6.86-3,9.28-.17,4,4.71-5.13,17-6.77,21.25-2.4,6.21-2.75,15.34,3.13,19.8,3,2.29,6.23,3.39,7.22,7.54.92,3.85.21,7,1.9,10.68,2.65,5.65,8.74,7.54,13.07,11.87,5.67,5.69,5.28,13.06,5.28,21.1,0,8.43,3.21,14.84,4.32,22.55,1.15,7.95,3.49,15.33,5.15,23,1.27,5.79,6.25,14.54,13.49,13.36.5-2.73-2.35-4.89-2.71-7.6-.32-2.47.38-5-.11-7.68-1-5.22-.93-8.29,2.54-12.83,1.22-1.61,2.9-3,4.17-4.54,2.46-3.13.58-2.2.47-5.61-.12-4.28,1.17-2.18,3.74-3.52,1.33-.68,2.82-2.76,3.83-3.83,2.25-2.33,5.71-5.13,7.44-7.9,2-3.12,1.71-7.46,3.71-10.69,2.31-3.69,5.56-3.69,8.77-6.09,4.16-3.13,2.44-6.42,3.21-10.7a48.47,48.47,0,0,1,9-20.73c5.68-7.19,8.13-13.28,1.21-20.16-3.4-3.4-5.18-2.5-9.72-3.68-3.45-.92-6.56-3.43-10.07-3.86-2.12-.26-3.35.5-5.28,0s-1.57-1.57-3.46-1.56c-2.82,0-6.76,5.92-9.14,2.16-1.33-2.09,2.69-7.88,2.51-10.68-.22-3.43-1.5-9.05-4.87-10.93-1.28-.71-4.11-.82-5.68-1.42a30.75,30.75,0,0,1-5.28-2.9c-2.15-1.38-6.31-3.78-7.26-6.24-2.64-.11-4.42-1.57-7.12-1.53-2.4,0-4,1.14-6.59.85-2.29-.25-4.74-2.06-7.2-1.71-1.64.22-4.07,2.35-5.5,3.15a38.24,38.24,0,0,1-11.87,4.42c-6.42,1.21-7.57-1.25-7.2-7.19l-1-1.92c2.39-6.63-1.91-7.1-6.65-8.7-.65-4.72,5.15-8.09,2.74-13.27-4.92-.25-10.28,13.57-14.43,7.58-2.74-4,1.43-15,3.83-18.34s11.28-9.45,15.44-10a6.7,6.7,0,0,1,7.32,3.86c1.37,3.1-.4,6,0,9.53,4.14-1,3.07-6.22,2.89-9-.31-4.73,2.17-4.38,4.58-7.78,2.18-3.1,2.53-6.63,5.27-9.63,2.12-2.33,4.62-4.79,7-6.94,2.66-2.46,5.66-2.24,8.4-4,4.17-2.75-1.33-7.85,4.79-7.48,2.18.14,1.1,1.5,4,.85a46.16,46.16,0,0,0,4.76-1.93c5.85-2.37,1.71-3-1-6.11-3.4-3.93,1.42-3.24,4.95-3.83,2.58-.44,2-1.28,4.31.23,2,1.35.81,3.13,3.72,3,5.54-.2,1.71-5.74.47-7.58-2.11-3.16-2.65-5.35-7.11-5.48a7,7,0,0,0-.14-4.64c-3.75.49-4.4-2.23-7.25-3.32-4.78-1.8-4,2.12-6,4.8s-5.86,2.27-7.35,5.64-.07,6.16-5.7,5.2c.77-2.11.5-4.8.37-7a24.35,24.35,0,0,1-4.64-1.11c0-5.63,6.23-6.1,10.47-6.63,4.74-.6,6.29-5.43,10.53-6.23,3.94-.77,6.78,5.63,11.65,1.93,2.78-2.12,1.49-3.37.47-5.41a28.42,28.42,0,0,0-2-2.27l-.1-.17c3.78-.72,7.6-1.29,11.45-1.74a36.86,36.86,0,0,0,3.15,6.11c.63,1.07,1.82,1.78,2.32,3,.57,1.34-.78,3,.92,3.89,2.6,1.39,10.18-7.67,12-9.14,2.31-1.87,3.75-2.9,3.2-4.71a147.86,147.86,0,0,1,35.61,5.42c.92,1.14,1.86,2.32,2.79,3.63,2,2.8,3.31,5.33,7,6.58,2.11.72,8.84.6,6,5.4-2.59,4.45-5.45-1.37-6.75-2.78-1.81-1.93-7.14-4.08-7,.37.25,6.62,15.17,5.55,12,12.83,1.8,1.05,5.32,2.8,4.74,5.4-.71,3.22-4.9,1.17-4.82,5.28.11,5.83,6.47,10.63,12.38,8.53,6.29-2.24,1.55-11,8.76-11.88,2.85-.34,4.53.49,7.07,2.5,2.07,1.64,3.4,5.38,6.26,5.09.31-1.78-1-3.05-1.26-4.68,2.21.55,6.67,3.32,7.93,5.25,1.93,2.9,1.72,7.11,6.42,3.34-.71-.58-1.06-1.86-1.43-2.32,6,0,10.19,2.49,12.78,7.7,5.76,11.65-8.39,2.42-9.09,8.47-3.48-1.1-5-3.9-8.07-5.58-1.43-.79-4.08-.38-5.18-1.18-1.51-1.11-1.14-3.13-2.47-4.23-5.24-4.29-17.17,2.64-22,5.42-1.3.75-2.69.83-3.58,2.24-1.53,2.41.62,3,.14,5.3-.68,3.23-4.89,4.71-6.16,7.3-3,6.19,3.14,15.07,2.31,21.95-.46,3.82-4.58,8-3,11.17.68,1.38,3.06,2.56,4,4.17s1.18,3.41,2.28,4.94c3.52,5,8.59,10.48,12.72,15.1,2.36,2.63,5.55,3.36,9.1,2.64a50.36,50.36,0,0,0,10.07-2.88c3.62-1.73,4.09-4.18,7.9-2.52,3,1.3,5.69,5.16,9.22,2,2.92,2.85-.3,7.8-1,11-.83,4.07.77,7.59,3.27,11.05,3,4.14,3.71,4.88,3.09,10.42a123.77,123.77,0,0,1-2.5,12.55c-.88,4.09-3.5,7.2-3.36,11.53.13,4,1.86,7.23,1.34,11.52-.48,3.78-.7,8.29-1.68,12s-3.7,7.14-4.82,11c-1.07,3.69-.78,8.47,1.8,11.51s5.36,1.35,8.52-1c6.22-4.72,9-12.74,13.19-19.11s8.47-12.45,11.28-19.18c.6-1.44,1.32-2.84,2.06-4.25A147.19,147.19,0,0,1,1103.84,946.46Zm36.7-192.72a9,9,0,0,0,3.73,6.28C1143.07,757.9,1141.84,755.8,1140.54,753.74ZM853.71,760.4a9,9,0,0,0,4.37-7.32Q855.78,756.67,853.71,760.4Z"/><path class="cls-6" d="M1130.75,752.67a18.76,18.76,0,0,0,1.93,8.3c-22-33.17-44.55-57.48-86.85-67.66l-47.85.1-43.8-.1c-48.82,11.75-71.27,42.31-97.1,83.59a182.18,182.18,0,0,0-21.19,48.28l-1.41,5.15c-.18.65-.36,1.32-.53,2,1.94-30.57,11.43-53,15.26-60.88a18.78,18.78,0,0,0,18.6-18.75,18.56,18.56,0,0,0-2.78-9.8,166.57,166.57,0,0,1,268.33.29A18.53,18.53,0,0,0,1130.75,752.67Z"/><path class="cls-7" d="M929,980.72a119.59,119.59,0,0,1-45.56-15.3c-12.46-7.13-26.54-9.55-33.85,8.32-14.93,36.48,0,43.11,36.48,44.77s43.11,8.29,58,11.61S969,992,942.42,983.69A73.19,73.19,0,0,0,929,980.72Z"/><path class="cls-8" d="M1071,980.72a119.59,119.59,0,0,0,45.56-15.3c12.46-7.13,26.54-9.55,33.85,8.32,14.92,36.48,0,43.11-36.48,44.77s-43.11,8.29-58,11.61-24.87-38.14,1.66-46.43A73,73,0,0,1,1071,980.72Z"/><path class="cls-9" d="M1132.68,761a18.84,18.84,0,0,0,2.5,3.79Q1133.94,762.84,1132.68,761Z"/></svg>